<svg width="14" height="13" viewBox="0 0 14 13" fill="none" xmlns="http://www.w3.org/2000/svg">
<path d="M9.52882 11.2471H10.6903C11.0653 11.2471 11.425 11.0982 11.6902 10.833C11.9553 10.5678 12.1043 10.2082 12.1043 9.83314V8.67164M12.1043 4.32866V3.16717C12.1043 2.79215 11.9553 2.4325 11.6902 2.16732C11.425 1.90215 11.0653 1.75317 10.6903 1.75317H9.52882M5.18584 11.2471H4.02435C3.64933 11.2471 3.28968 11.0982 3.0245 10.833C2.75933 10.5678 2.61035 10.2082 2.61035 9.83314V8.67164M2.61035 4.32866V3.16717C2.61035 2.79215 2.75933 2.4325 3.0245 2.16732C3.28968 1.90215 3.64933 1.75317 4.02435 1.75317H5.18584" stroke="black" stroke-width="1.375" stroke-linecap="round" stroke-linejoin="round"/>
</svg>
