<svg width="17" height="17" viewBox="0 0 17 17" fill="none" xmlns="http://www.w3.org/2000/svg">
<path d="M9.16492 1.77489C8.64514 1.57504 8.06971 1.57504 7.54992 1.77489L2.39892 3.75589C2.09241 3.87382 1.82883 4.08185 1.6429 4.35257C1.45698 4.62328 1.35745 4.94398 1.35742 5.27239V11.7274C1.35745 12.0558 1.45698 12.3765 1.6429 12.6472C1.82883 12.9179 2.09241 13.126 2.39892 13.2439L7.54992 15.2249C8.06971 15.4248 8.64514 15.4248 9.16492 15.2249L14.3159 13.2439C14.6224 13.126 14.886 12.9179 15.0719 12.6472C15.2579 12.3765 15.3574 12.0558 15.3574 11.7274V5.27239C15.3574 4.94398 15.2579 4.62328 15.0719 4.35257C14.886 4.08185 14.6224 3.87382 14.3159 3.75589L9.16492 1.77489ZM7.90892 2.70839C8.19762 2.59742 8.51722 2.59742 8.80592 2.70839L13.4644 4.49989L11.6074 5.21489L6.50042 3.24989L7.90892 2.70839ZM5.10742 3.78489L10.2144 5.74989L8.35742 6.46439L3.25042 4.49989L5.10742 3.78489ZM2.35892 5.22839L7.85742 7.34339V14.2719L2.75792 12.3104C2.64009 12.265 2.53876 12.1851 2.46727 12.081C2.39578 11.9769 2.35748 11.8537 2.35742 11.7274V5.27239C2.35742 5.25739 2.35792 5.24273 2.35892 5.22839ZM8.85742 14.2719V7.34339L14.3559 5.22839L14.3574 5.27239V11.7274C14.3574 11.9859 14.1979 12.2174 13.9569 12.3104L8.85742 14.2719Z" fill="black"/>
</svg>
