<svg width="18" height="18" viewBox="0 0 18 18" fill="none" xmlns="http://www.w3.org/2000/svg">
<path d="M9.77401 0.758237C9.1243 0.508408 8.40501 0.508403 7.75526 0.758222L1.31637 3.23443C0.933224 3.38183 0.603726 3.64187 0.371303 3.98026C0.13888 4.31866 0.0144411 4.71953 0.0143857 5.13004L0.0139208 13.1988C0.0139288 13.6093 0.138322 14.0102 0.370706 14.3486C0.60309 14.687 0.932557 14.947 1.31569 15.0944L7.75429 17.5707C8.40401 17.8206 9.1233 17.8206 9.77304 17.5707L16.2119 15.0945C16.5951 14.9471 16.9246 14.6871 17.157 14.3487C17.3894 14.0103 17.5139 13.6094 17.5139 13.1989L17.5144 5.13017C17.5144 4.71965 17.39 4.31878 17.1576 3.98038C16.9252 3.64198 16.5957 3.38194 16.2126 3.23453L9.77401 0.758237ZM8.20395 1.9251C8.56483 1.78638 8.96432 1.78639 9.3252 1.92511L15.1482 4.16452L12.8269 5.05826L6.44328 2.60196L8.20395 1.9251ZM4.70199 3.2707L11.0856 5.727L8.7643 6.6201L2.38069 4.16444L4.70199 3.2707ZM1.26626 5.07505L8.13924 7.71885L8.13874 16.3795L1.7645 13.9276C1.61722 13.8709 1.49056 13.7709 1.4012 13.6408C1.31185 13.5107 1.26398 13.3566 1.26392 13.1988L1.26439 5.13005C1.26439 5.1113 1.26501 5.09297 1.26626 5.07505ZM9.38874 16.3795L9.38924 7.71886L16.2625 5.07516L16.2644 5.13016L16.2639 13.1989C16.2639 13.522 16.0645 13.8114 15.7633 13.9277L9.38874 16.3795Z" fill="#305CEC"/>
</svg>
