<svg width="16" height="15" viewBox="0 0 16 15" fill="none" xmlns="http://www.w3.org/2000/svg">
<path d="M8.35742 5C7.00242 5 5.85742 6.145 5.85742 7.5C5.85742 8.855 7.00242 10 8.35742 10C9.71242 10 10.8574 8.855 10.8574 7.5C10.8574 6.145 9.71242 5 8.35742 5ZM8.35742 8.75C7.6918 8.75 7.10742 8.16563 7.10742 7.5C7.10742 6.83437 7.6918 6.25 8.35742 6.25C9.02305 6.25 9.60742 6.83437 9.60742 7.5C9.60742 8.16563 9.02305 8.75 8.35742 8.75Z" fill="black"/>
<path d="M13.3574 3.125H11.7412L10.0493 1.43312C9.93211 1.31591 9.77317 1.25004 9.60742 1.25H7.10742C6.94168 1.25004 6.78273 1.31591 6.66555 1.43312L4.97367 3.125H3.35742C2.66805 3.125 2.10742 3.68563 2.10742 4.375V11.25C2.10742 11.9394 2.66805 12.5 3.35742 12.5H13.3574C14.0468 12.5 14.6074 11.9394 14.6074 11.25V4.375C14.6074 3.68563 14.0468 3.125 13.3574 3.125ZM3.35742 11.25V4.375H5.23242C5.39867 4.375 5.55742 4.30937 5.6743 4.19187L7.36617 2.5H9.34867L11.0405 4.19187C11.1577 4.30909 11.3167 4.37496 11.4824 4.375H13.3574L13.3587 11.25H3.35742Z" fill="black"/>
</svg>
