<svg width="21" height="21" viewBox="0 0 21 21" fill="none" xmlns="http://www.w3.org/2000/svg">
<path d="M10.0527 18.1053C8.48155 18.11 6.96604 17.5241 5.80669 16.4638C4.64735 15.4035 3.92886 13.9461 3.79373 12.3808C3.6586 10.8155 4.11669 9.25664 5.07715 8.01329C6.03762 6.76995 7.43029 5.93299 8.97897 5.66842C14.079 4.68421 15.4211 4.21895 17.2105 2C18.1053 3.78947 19 5.74 19 9.15789C19 14.0789 14.7232 18.1053 10.0527 18.1053Z" stroke="#18C07A" stroke-width="2" stroke-linecap="round" stroke-linejoin="round"/>
<path d="M2 18.9999C2 16.3157 3.65526 14.2041 6.54526 13.6315C8.71053 13.202 10.9474 11.842 11.8421 10.9473" stroke="#18C07A" stroke-width="2" stroke-linecap="round" stroke-linejoin="round"/>
</svg>
