<svg width="17" height="16" viewBox="0 0 17 16" fill="none" xmlns="http://www.w3.org/2000/svg">
<path d="M15.9773 2.99267C15.9702 2.87035 15.9183 2.75491 15.8317 2.66827C15.7451 2.58163 15.6296 2.52982 15.5073 2.52267C12.2723 2.33517 9.6748 3.31892 8.55855 5.16142C7.82105 6.37955 7.8223 7.85892 8.54855 9.27017C8.13511 9.76223 7.83299 10.3379 7.66293 10.9577L6.64605 9.93705C7.1348 8.91642 7.11605 7.85267 6.58355 6.96892C5.75855 5.60705 3.85418 4.87705 1.4898 5.0158C1.36748 5.02294 1.25204 5.07475 1.1654 5.1614C1.07875 5.24804 1.02694 5.36348 1.0198 5.4858C0.880425 7.85017 1.61105 9.75455 2.97293 10.5795C3.42232 10.8542 3.93876 10.9995 4.46543 10.9995C4.97661 10.9932 5.47983 10.8721 5.93793 10.6452L7.50043 12.2077V13.9995C7.50043 14.1322 7.5531 14.2593 7.64687 14.3531C7.74064 14.4469 7.86782 14.4995 8.00043 14.4995C8.13303 14.4995 8.26021 14.4469 8.35398 14.3531C8.44775 14.2593 8.50043 14.1322 8.50043 13.9995V12.1564C8.49815 11.361 8.76884 10.5888 9.2673 9.96892C9.91039 10.305 10.6236 10.4849 11.3492 10.4939C12.0507 10.4962 12.7391 10.3046 13.3386 9.94018C15.1811 8.82518 16.1673 6.22767 15.9773 2.99267ZM3.48855 9.72455C2.5298 9.14393 1.9873 7.76955 2.00043 5.99955C3.77043 5.98455 5.1448 6.52892 5.72543 7.48767C6.02855 7.98767 6.07793 8.5708 5.87918 9.17142L4.35355 7.6458C4.25902 7.55599 4.13314 7.50666 4.00276 7.50833C3.87238 7.51 3.74781 7.56253 3.65561 7.65474C3.56341 7.74694 3.51087 7.87151 3.50921 8.00189C3.50754 8.13227 3.55687 8.25814 3.64668 8.35267L5.1723 9.8783C4.57168 10.077 3.98918 10.0277 3.48855 9.72455ZM12.8204 9.0858C11.9829 9.59268 10.9986 9.63143 9.99855 9.2108L13.3542 5.85455C13.444 5.76002 13.4933 5.63414 13.4916 5.50376C13.49 5.37338 13.4374 5.24881 13.3452 5.15661C13.253 5.06441 13.1285 5.01187 12.9981 5.01021C12.8677 5.00854 12.7418 5.05787 12.6473 5.14768L9.29105 8.49955C8.86855 7.49955 8.90667 6.51455 9.41605 5.67767C10.2873 4.24017 12.3535 3.43893 14.9992 3.5008C15.0592 6.1458 14.2592 8.21455 12.8204 9.0858Z" fill="white"/>
</svg>
