<svg width="21" height="21" viewBox="0 0 21 21" fill="none" xmlns="http://www.w3.org/2000/svg">
<path fill-rule="evenodd" clip-rule="evenodd" d="M19.281 10.5929C19.2864 5.99037 15.5598 2.25522 10.9574 2.24989C6.35485 2.24456 2.6197 5.97107 2.61437 10.5736C2.60904 15.1761 6.33555 18.9112 10.938 18.9165C15.5405 18.9219 19.2757 15.1954 19.281 10.5929ZM10.9525 6.41655C11.1735 6.41681 11.3854 6.50485 11.5415 6.66131C11.6976 6.81777 11.7851 7.02984 11.7849 7.25085L11.7801 11.4175C11.7798 11.6385 11.6918 11.8504 11.5353 12.0065C11.3788 12.1626 11.1668 12.2501 10.9458 12.2499C10.7248 12.2496 10.5129 12.1616 10.3568 12.0051C10.2007 11.8487 10.1131 11.6366 10.1134 11.4156L10.1182 7.24892C10.1185 7.02791 10.2065 6.81605 10.363 6.65995C10.5194 6.50385 10.7315 6.4163 10.9525 6.41655ZM10.1105 13.9156C10.1108 13.6946 10.1988 13.4827 10.3553 13.3266C10.5117 13.1705 10.7238 13.083 10.9448 13.0832L10.9515 13.0832C11.1725 13.0835 11.3843 13.1715 11.5404 13.328C11.6965 13.4844 11.7841 13.6965 11.7838 13.9175C11.7836 14.1385 11.6955 14.3504 11.5391 14.5065C11.3826 14.6626 11.1706 14.7501 10.9495 14.7499L10.9429 14.7499C10.7219 14.7496 10.51 14.6616 10.3539 14.5051C10.1978 14.3487 10.1102 14.1366 10.1105 13.9156Z" fill="#BD6200"/>
</svg>
